<?xml version="1.0" encoding="iso-8859-1"?>
<!-- Generator: Adobe Illustrator 19.0.0, SVG Export Plug-In . SVG Version: 6.00 Build 0)  -->
<svg version="1.1" id="Layer_1" xmlns="http://www.w3.org/2000/svg" xmlns:xlink="http://www.w3.org/1999/xlink" x="0px" y="0px"
	 viewBox="0 0 512 512" style="enable-background:new 0 0 512 512;" xml:space="preserve">
<g>
	<g>
		<path d="M396,252.125H171V115c0-46.869,38.131-85,85-85s85,38.131,85,85v41.642h-25c-8.284,0-15,6.716-15,15s6.716,15,15,15h40
			c8.284,0,15-6.716,15-15V115C371,51.589,319.411,0,256,0S141,51.589,141,115v137.125h-25c-8.284,0-15,6.716-15,15V357
			c0,85.467,69.533,155,155,155s155-69.533,155-155v-89.875C411,258.84,404.284,252.125,396,252.125z M381,357
			c0,68.925-56.075,125-125,125s-125-56.075-125-125v-74.875h250V357z"/>
	</g>
</g>
<g>
	<g>
		<path d="M256,322.062c-22.056,0-40,17.944-40,40c0,16.753,10.357,31.124,25,37.071v27.929c0,8.284,6.716,15,15,15s15-6.716,15-15
			v-27.929c14.643-5.947,25-20.318,25-37.071C296,340.006,278.056,322.062,256,322.062z M256,372.062c-5.514,0-10-4.486-10-10
			c0-5.514,4.486-10,10-10c5.514,0,10,4.486,10,10C266,367.576,261.514,372.062,256,372.062z"/>
	</g>
</g>
<g>
</g>
<g>
</g>
<g>
</g>
<g>
</g>
<g>
</g>
<g>
</g>
<g>
</g>
<g>
</g>
<g>
</g>
<g>
</g>
<g>
</g>
<g>
</g>
<g>
</g>
<g>
</g>
<g>
</g>
</svg>
